# xmcd
#
# Track frame offsets: 
#        150
#        2192
#        15747
#        35975
#        40365
#        51792
#        78297
#        83240
#        91217
#        103290
#        107032
#        121697
#        134860
#        140035
#        157310
#        168347
#        187030
#        203220
#        207835
#        225305
#        228330
#        247790
#        253367
#        274212
#        290100
#        296010
#        311035
#
# Disc length: 4424 seconds
#
# Revision: 3
# Processed by: cddbd v1.5.1PL2 Copyright (c) Steve Scherf et al.
# Submitted via: ExactAudioCopy v0.95b3
#
DISCID=9911461b
DTITLE=Honeyboy Edwards - Delta Bluesman
DYEAR=1992
DGENRE=
TTITLE0=Alan Lomax introduces David Edwards [spoken]
TTITLE1=Roamin' and Ramblin' Blues
TTITLE2=I'm from the Library of Congress [spoken]
TTITLE3=You Got to Roll (accapella)
TTITLE4=You Got to Roll (Levee Camp Song)
TTITLE5=Water Coast Blues
TTITLE6=Stagolee
TTITLE7=Just a Spoonful
TTITLE8=Spread My Raincoat Down
TTITLE9=Hellatakin' Blues
TTITLE10=Wind Howlin' Blues
TTITLE11=Worried Life Blues
TTITLE12=Tear It Down Rag
TTITLE13=The Army Blues
TTITLE14=They called it Big Kate [spoken]
TTITLE15=Big Katie Allen
TTITLE16=Black Cat
TTITLE17=I met Peetie Wheatstraw in '39 [spoken]
TTITLE18=Number 12 at the Station
TTITLE19=When I came to Memphis [spoken]
TTITLE20=Rocks in My Pillow
TTITLE21=We used to sing that when I was a kid [spoken]
TTITLE22=Decoration Day
TTITLE23=Who May Your Regular Be
TTITLE24=I studied up that song myself [spoken]
TTITLE25=Eyes Full of Tears
TTITLE26=Bad Whiskey and Cocaine
EXTD=Recorded 1942-07-20/1991-12-31.\nDavid "Honeyboy" Edwards (b. 191
EXTD=5-06-28): vocals, guitar, rack harmonica\nEarwig CD4922 (1992), U
EXTD=PC 739788492225.
EXTT0=
EXTT1=
EXTT2=
EXTT3=
EXTT4=
EXTT5=
EXTT6=
EXTT7=
EXTT8=
EXTT9=
EXTT10=
EXTT11=
EXTT12=
EXTT13=
EXTT14=
EXTT15=
EXTT16=
EXTT17=
EXTT18=
EXTT19=
EXTT20=
EXTT21=
EXTT22=
EXTT23=
EXTT24=
EXTT25=
EXTT26=
PLAYORDER=
